<?xml version="1.0" encoding="UTF-8" standalone="no"?>
<!DOCTYPE svg PUBLIC "-//W3C//DTD SVG 1.1//EN" "http://www.w3.org/Graphics/SVG/1.1/DTD/svg11.dtd">
<svg width="100%" height="100%" viewBox="0 0 64 64" version="1.1" xmlns="http://www.w3.org/2000/svg" xmlns:xlink="http://www.w3.org/1999/xlink" xml:space="preserve" xmlns:serif="http://www.serif.com/" style="fill-rule:evenodd;clip-rule:evenodd;stroke-linejoin:round;stroke-miterlimit:2;">
    <g transform="matrix(1.04056,0.435018,-1.26807,3.0332,58.821,-47.7912)">
        <rect x="0" y="17.909" width="23" height="14.925" style="fill:rgb(207,207,207);"/>
    </g>
    <g transform="matrix(1.43955,0,0,1.603,5.30873,-25.7085)">
        <rect x="0" y="17.909" width="23" height="14.925" style="fill:rgb(30,138,255);"/>
    </g>
    <g transform="matrix(1.43955,0,0,1.66999,5.30873,-2.64131)">
        <rect x="0" y="17.909" width="23" height="14.925" style="fill:white;"/>
    </g>
    <g transform="matrix(1.09656,0,0,1.09656,-2.59008,-3.09055)">
        <path d="M13.665,22.946C14.179,23.151 14.76,22.901 14.965,22.39L15.842,20.201L20.901,20.201L21.778,22.39C22.29,23.603 24.104,22.871 23.634,21.645C23.634,21.646 19.3,10.826 19.3,10.826C19.002,10.006 17.742,10.002 17.443,10.826C17.443,10.826 13.109,21.646 13.109,21.646C12.903,22.158 13.152,22.74 13.665,22.946ZM18.372,13.888L20.1,18.201L16.643,18.201L18.372,13.888Z" style="fill:white;fill-rule:nonzero;"/>
    </g>
    <g transform="matrix(1.09656,0,0,1.09656,-2.59008,-3.09055)">
        <path d="M57.624,17.743C57.259,16.846 56.564,16.144 55.668,15.768L39.126,8.833L39.126,7.466C39.126,5.555 37.571,4 35.661,4L9.577,4C7.666,4 6.111,5.555 6.111,7.466L6.111,48.204C6.111,50.115 7.666,51.67 9.577,51.67L17.971,51.67L37.163,59.724C37.617,59.912 38.087,60.001 38.55,60.001C39.966,60.001 41.311,59.168 41.886,57.791L57.603,20.501C57.979,19.616 57.986,18.637 57.624,17.743ZM9.577,6L35.661,6C36.469,6 37.126,6.657 37.126,7.466L37.126,26.835L8.111,26.835L8.111,7.466C8.111,6.657 8.769,6 9.577,6ZM8.111,48.204L8.111,28.835L37.126,28.835L37.126,48.204C37.126,49.013 36.469,49.67 35.661,49.67C35.661,49.67 9.614,49.66 9.577,49.67C8.769,49.67 8.111,49.013 8.111,48.204ZM55.761,19.722L40.042,57.018C39.701,57.834 38.754,58.219 37.933,57.878L23.138,51.67L35.661,51.67C37.571,51.67 39.126,50.115 39.126,48.204L39.126,11.001L54.895,17.611C55.701,17.932 56.118,18.927 55.761,19.722L55.761,19.722Z" style="fill-rule:nonzero;"/>
    </g>
    <g transform="matrix(1.09656,0,0,1.09656,-2.59008,-3.09055)">
        <path d="M17.13,33.762L28.107,33.762C29.418,33.741 29.424,31.784 28.107,31.762L17.13,31.762C15.819,31.783 15.813,33.74 17.13,33.762Z" style="fill-rule:nonzero;"/>
    </g>
    <g transform="matrix(1.09656,0,0,1.09656,-2.59008,-3.09055)">
        <path d="M12.342,37.854L32.895,37.854C34.202,37.834 34.214,35.876 32.894,35.854L12.342,35.854C11.034,35.873 11.023,37.831 12.342,37.854Z" style="fill-rule:nonzero;"/>
    </g>
    <g transform="matrix(1.09656,0,0,1.09656,-2.59008,-3.09055)">
        <path d="M12.342,41.944L32.895,41.944C34.202,41.924 34.214,39.967 32.894,39.944L12.342,39.944C11.034,39.964 11.023,41.922 12.342,41.944Z" style="fill-rule:nonzero;"/>
    </g>
    <g transform="matrix(1.09656,0,0,1.09656,-2.59008,-3.09055)">
        <path d="M32.895,46.036C34.202,46.016 34.214,44.059 32.894,44.036L12.342,44.036C11.034,44.056 11.023,46.014 12.342,46.036C12.342,46.036 32.895,46.036 32.895,46.036Z" style="fill-rule:nonzero;"/>
    </g>
    <g transform="matrix(1.09656,0,0,1.09656,-2.59008,-3.09055)">
        <path d="M28.327,23.018C29.055,23.018 29.728,22.804 30.31,22.454C30.74,23.392 32.217,23.063 32.2,22.018C32.2,22.018 32.2,16.285 32.2,16.285C32.216,15.242 30.741,14.908 30.31,15.848C27.865,14.263 24.371,16.221 24.455,19.151C24.455,21.283 26.192,23.018 28.327,23.018L28.327,23.018ZM28.327,17.285C30.796,17.349 30.796,20.954 28.327,21.018C25.858,20.953 25.858,17.349 28.327,17.285Z" style="fill:white;fill-rule:nonzero;"/>
    </g>
</svg>
